<svg id="Component_137_1" data-name="Component 137 – 1" xmlns="http://www.w3.org/2000/svg" width="1611.905" height="302.036" viewBox="0 0 1611.905 302.036">
  <g id="Group_15813" data-name="Group 15813" transform="translate(433.031 -2071)" opacity="0.06">
    <g id="Group_15282" data-name="Group 15282" transform="translate(368.048 2071)">
      <path id="Intersection_6" data-name="Intersection 6" d="M10.9,34.623Q4.721,17.649,0,0H796.679Q795,6.285,793.117,12.519q-3.353,11.159-7.332,22.1Z" transform="translate(7.075 267.413)" fill="#222629"/>
      <g id="Layer_2" data-name="Layer 2" transform="translate(442.181 100.778)">
        <g id="Layer_1" data-name="Layer 1">
          <path id="Path_38167" data-name="Path 38167" d="M166.143,113.159,162,69.254l2.023-.972.067-1.408h-1.945v-11.3l3.42-6.375V47.474h-4.352v-2.7h-1.934V43.491l3.439-3.439v-1.42h-1.595V37.69h-1.863v.991H157.38V36.6h-2.016v5.909h.972v1.963h-3.022L121.832,28.29v-6.8l1.554-1.554v-.671h-1.323V10.477h-2.876L99.381,0l-19.8,10.477H76.706v8.785h-1.33v.671l1.565,1.554v6.8L45.454,44.471h-3V42.507h.972V36.6H41.356v2.079H39.493v-.991H37.63v.943H36.036v1.42l3.439,3.439v1.282H37.541v2.7H33.189V49.2l3.42,6.375V66.866H34.65l.067,1.408,2.012.972-4.113,43.912L0,134.541v33.491H198.758V134.541Z" fill="#222629"/>
        </g>
      </g>
      <g id="Layer_2-2" data-name="Layer 2" transform="translate(0 126.59)">
        <g id="Layer_1-2" data-name="Layer 1">
          <path id="Path_38165" data-name="Path 38165" d="M227.592,136.363V88.185h1.252V86.24h-8.919l-2.086-3.9h-.972V69.824h-2.157v3.819h-4.035v-1.8H191.452V70.327l1.863-1.863h-3.953V62.85h2.314l-3.286-3.275v-5.3l1.945-1.945h-2.608V41.322l2.608-2.608V37.343h-6.066V31.855l2.917-2.917v-1.3l-7.049-7.042V16.337l1.945-1.945V13.1h-4.061V5.618h1.33V2.7h-4.285V0h-2.917V2.608h-4.642V5.775H169.2v7.217h-5.179v1.583l1.565,1.565v4.452l-6.807,6.8v1.759l2.664,2.653v5.656H156.6v1.8l2.809,2.809V52.082h-3.063c-.108,0,2.321,2.321,2.321,2.321v6.531h-2.575l-12.459-6.8h-7.567V45.383h-2.146l-1.613,3.886H120.644V44.426h-7.668v4.843H101.315L99.69,45.383H97.552v8.748H89.914l-12.459,6.8H74.888V54.422S77.317,52.1,77.2,52.1H74.143v-10l2.809-2.809v-1.8H72.108V31.848l2.608-2.694V27.366l-6.8-6.8V16.092l1.554-1.528V12.992H64.288V5.764h1.691V2.608H61.333V0H58.416V2.7H54.169V5.618h1.345V13.1H51.453v1.293L53.4,16.337v4.255l-7.06,7.045V28.96l2.917,2.917v5.5H43.189v1.371L45.8,41.356v11.01H43.189l1.945,1.945v5.264L41.8,62.85h2.3v5.607H40.167L42.03,70.32v1.516H22.82v1.8H18.785V69.824H16.628V82.339h-.98l-2.079,3.886H4.605V88.17H5.831v48.193L0,142.209H233.452Z" fill="#222629"/>
        </g>
      </g>
      <g id="Layer_2-3" data-name="Layer 2" transform="translate(208.944)">
        <g id="Layer_1-3" data-name="Layer 1">
          <path id="Path_38166" data-name="Path 38166" d="M266.533,169.265v-2.109h-5.276v-3.022h1.226v-1.841h-2.917v-3.886h-1.252V146.027l2.06-2.06h-11.77L246,146.575l-1.118-1.1,2.079-2.079-1.185-1.2h-1.185l-9.661-6.531v-1.613h-.95v-5.145h2.109v1.118h.972v-1.118H239v-1.729h-1.945v-1.028h-1.08v1.2h-3.022v-2.839h1.293v-1.166h-1.39v-1.118h-1.673v1.177h-1.233v1.069h1.233v2.94h-2.8v-.972h-1.2v.972h-1.08v1.49h.972v.883H228.2v-.8h2.917v4.843h-1.244v1.729l-9.426,6.911h-8.767V114.195l1.624-1.624V111.6h-3.674V108.68h-1.945v-5.734h-1.945V100.5H203.9V84.616h-2.981v16.133h-1.963v2.265h-1.837v4.605h-1.49v3.063h-2.448L177.16,91.061V85.95h-3.3V53.2l2.586-2.608V48.58h-5.313V46.531l-2.09-2.09c-.086-.086,0-10.585,0-10.585H166.12V44.623l-1.651,1.651v2.3h-12.7L138.68,29.94V28.115l1.807-1.818V24.005H137.57V21.147h-1.777V11.427h4.713l1.863,1.863h.768l1.945-1.945h1.673V8.424H145.13l-2.06-2.068h-1.058l-2.023,2.023H135.8V6.121l1.863-1.863V2.917L134.764,0h-3.033l-2.917,2.917v1.33l1.9,1.863V8.431h-4.169l-2.023-2.023h-1.1L121.348,8.48h-1.624V11.4h1.751l1.945,1.945h.779l1.863-1.863h4.713v9.735H129v2.791H126.08v2.3l1.818,1.818v1.826L114.753,48.591H102.041v-2.3l-1.651-1.651V33.867H97.473s.1,10.5,0,10.585l-2.079,2.09v2.049H90.078V50.6l2.586,2.608V85.961H89.351v5.112l-15.976,19.62H70.946V107.63H69.418v-4.616H67.582v-2.265H65.637V84.616H62.615v15.842H60.778v2.448H58.833v5.753H56.892v2.917H53.167v.972l1.624,1.624v28.316H46.054l-9.426-6.911v-1.729H35.395V129h2.917v.8H39.43v-.9H40.4v-1.49h-1.01v-.972h-1.2v.972H35.335V124.5h1.233v-1.08H35.328v-1.185H33.655v1.118H32.276v1.166h1.293v2.839H30.551v-1.2h-1.08v1.028H27.522v1.725h1.945v1.118h.972v-1.118h2.12v5.13h-.976v1.613l-9.657,6.524h-1.2l-1.185,1.2,2.079,2.079-1.1,1.1-2.608-2.608H6.162l2.06,2.06V158.4H7v3.9H4.1v1.863h1.2v2.981H0v2.109l2.429,2.429v75.819L.3,249.652V268.8H266.224V249.652l-2.12-2.127v-75.8Z" fill="#222629"/>
        </g>
      </g>
      <g id="Layer_2-4" data-name="Layer 2" transform="translate(609.337 114.276)">
        <g id="Layer_1-4" data-name="Layer 1">
          <path id="Path_38168" data-name="Path 38168" d="M191.344,59.709H179.09l-3.51-4.2v-3.9h-.924v3.9l-3.726,4.1v.816H158.136V48.766l3.674-4.754v-2H159.2V37.474s-1.293-9.776-8.852-13.118V20.834H148.3V10.857h-1.729V0h-2.981V10.8h-1.945V20.9h-1.9v3.566S131,29.121,130.77,37.761v4.1H128.2v2.75l3.625,4.754V60.357H119.135L116.046,55.6h-.972V51.654h-.641v3.964h-.972l-3.033,4.843H90.994l-3.033-4.843h-.972V51.654h-.652v3.957h-.972l-3.1,4.747H69.649V49.348l3.614-4.754v-2.75H70.689v-4.1c-.212-8.6-8.979-13.294-8.979-13.294V20.894H59.825V10.8H57.88V0H54.9V10.857H53.17v9.978H51.121v3.517C43.562,27.7,42.269,37.47,42.269,37.47V42H39.661V44.05L43.334,48.8V60.465H30.551v-.816l-3.726-4.1v-3.89H25.92v3.89l-3.51,4.206H10.145L0,72.235v82.287H201.489V72.235Z" fill="#222629"/>
        </g>
      </g>
    </g>
    <g id="Group_15282-2" data-name="Group 15282" transform="translate(-433.031 2071)">
      <path id="Intersection_6-2" data-name="Intersection 6" d="M10.9,34.623Q4.721,17.649,0,0H796.679Q795,6.285,793.117,12.519q-3.353,11.159-7.332,22.1Z" transform="translate(7.075 267.413)" fill="#222629"/>
      <g id="Layer_2-5" data-name="Layer 2" transform="translate(442.181 100.778)">
        <g id="Layer_1-5" data-name="Layer 1">
          <path id="Path_38167-2" data-name="Path 38167" d="M166.143,113.159,162,69.254l2.023-.972.067-1.408h-1.945v-11.3l3.42-6.375V47.474h-4.352v-2.7h-1.934V43.491l3.439-3.439v-1.42h-1.595V37.69h-1.863v.991H157.38V36.6h-2.016v5.909h.972v1.963h-3.022L121.832,28.29v-6.8l1.554-1.554v-.671h-1.323V10.477h-2.876L99.381,0l-19.8,10.477H76.706v8.785h-1.33v.671l1.565,1.554v6.8L45.454,44.471h-3V42.507h.972V36.6H41.356v2.079H39.493v-.991H37.63v.943H36.036v1.42l3.439,3.439v1.282H37.541v2.7H33.189V49.2l3.42,6.375V66.866H34.65l.067,1.408,2.012.972-4.113,43.912L0,134.541v33.491H198.758V134.541Z" fill="#222629"/>
        </g>
      </g>
      <g id="Layer_2-6" data-name="Layer 2" transform="translate(0 126.59)">
        <g id="Layer_1-6" data-name="Layer 1">
          <path id="Path_38165-2" data-name="Path 38165" d="M227.592,136.363V88.185h1.252V86.24h-8.919l-2.086-3.9h-.972V69.824h-2.157v3.819h-4.035v-1.8H191.452V70.327l1.863-1.863h-3.953V62.85h2.314l-3.286-3.275v-5.3l1.945-1.945h-2.608V41.322l2.608-2.608V37.343h-6.066V31.855l2.917-2.917v-1.3l-7.049-7.042V16.337l1.945-1.945V13.1h-4.061V5.618h1.33V2.7h-4.285V0h-2.917V2.608h-4.642V5.775H169.2v7.217h-5.179v1.583l1.565,1.565v4.452l-6.807,6.8v1.759l2.664,2.653v5.656H156.6v1.8l2.809,2.809V52.082h-3.063c-.108,0,2.321,2.321,2.321,2.321v6.531h-2.575l-12.459-6.8h-7.567V45.383h-2.146l-1.613,3.886H120.644V44.426h-7.668v4.843H101.315L99.69,45.383H97.552v8.748H89.914l-12.459,6.8H74.888V54.422S77.317,52.1,77.2,52.1H74.143v-10l2.809-2.809v-1.8H72.108V31.848l2.608-2.694V27.366l-6.8-6.8V16.092l1.554-1.528V12.992H64.288V5.764h1.691V2.608H61.333V0H58.416V2.7H54.169V5.618h1.345V13.1H51.453v1.293L53.4,16.337v4.255l-7.06,7.045V28.96l2.917,2.917v5.5H43.189v1.371L45.8,41.356v11.01H43.189l1.945,1.945v5.264L41.8,62.85h2.3v5.607H40.167L42.03,70.32v1.516H22.82v1.8H18.785V69.824H16.628V82.339h-.98l-2.079,3.886H4.605V88.17H5.831v48.193L0,142.209H233.452Z" fill="#222629"/>
        </g>
      </g>
      <g id="Layer_2-7" data-name="Layer 2" transform="translate(208.944)">
        <g id="Layer_1-7" data-name="Layer 1">
          <path id="Path_38166-2" data-name="Path 38166" d="M266.533,169.265v-2.109h-5.276v-3.022h1.226v-1.841h-2.917v-3.886h-1.252V146.027l2.06-2.06h-11.77L246,146.575l-1.118-1.1,2.079-2.079-1.185-1.2h-1.185l-9.661-6.531v-1.613h-.95v-5.145h2.109v1.118h.972v-1.118H239v-1.729h-1.945v-1.028h-1.08v1.2h-3.022v-2.839h1.293v-1.166h-1.39v-1.118h-1.673v1.177h-1.233v1.069h1.233v2.94h-2.8v-.972h-1.2v.972h-1.08v1.49h.972v.883H228.2v-.8h2.917v4.843h-1.244v1.729l-9.426,6.911h-8.767V114.195l1.624-1.624V111.6h-3.674V108.68h-1.945v-5.734h-1.945V100.5H203.9V84.616h-2.981v16.133h-1.963v2.265h-1.837v4.605h-1.49v3.063h-2.448L177.16,91.061V85.95h-3.3V53.2l2.586-2.608V48.58h-5.313V46.531l-2.09-2.09c-.086-.086,0-10.585,0-10.585H166.12V44.623l-1.651,1.651v2.3h-12.7L138.68,29.94V28.115l1.807-1.818V24.005H137.57V21.147h-1.777V11.427h4.713l1.863,1.863h.768l1.945-1.945h1.673V8.424H145.13l-2.06-2.068h-1.058l-2.023,2.023H135.8V6.121l1.863-1.863V2.917L134.764,0h-3.033l-2.917,2.917v1.33l1.9,1.863V8.431h-4.169l-2.023-2.023h-1.1L121.348,8.48h-1.624V11.4h1.751l1.945,1.945h.779l1.863-1.863h4.713v9.735H129v2.791H126.08v2.3l1.818,1.818v1.826L114.753,48.591H102.041v-2.3l-1.651-1.651V33.867H97.473s.1,10.5,0,10.585l-2.079,2.09v2.049H90.078V50.6l2.586,2.608V85.961H89.351v5.112l-15.976,19.62H70.946V107.63H69.418v-4.616H67.582v-2.265H65.637V84.616H62.615v15.842H60.778v2.448H58.833v5.753H56.892v2.917H53.167v.972l1.624,1.624v28.316H46.054l-9.426-6.911v-1.729H35.395V129h2.917v.8H39.43v-.9H40.4v-1.49h-1.01v-.972h-1.2v.972H35.335V124.5h1.233v-1.08H35.328v-1.185H33.655v1.118H32.276v1.166h1.293v2.839H30.551v-1.2h-1.08v1.028H27.522v1.725h1.945v1.118h.972v-1.118h2.12v5.13h-.976v1.613l-9.657,6.524h-1.2l-1.185,1.2,2.079,2.079-1.1,1.1-2.608-2.608H6.162l2.06,2.06V158.4H7v3.9H4.1v1.863h1.2v2.981H0v2.109l2.429,2.429v75.819L.3,249.652V268.8H266.224V249.652l-2.12-2.127v-75.8Z" fill="#222629"/>
        </g>
      </g>
      <g id="Layer_2-8" data-name="Layer 2" transform="translate(609.337 114.276)">
        <g id="Layer_1-8" data-name="Layer 1">
          <path id="Path_38168-2" data-name="Path 38168" d="M191.344,59.709H179.09l-3.51-4.2v-3.9h-.924v3.9l-3.726,4.1v.816H158.136V48.766l3.674-4.754v-2H159.2V37.474s-1.293-9.776-8.852-13.118V20.834H148.3V10.857h-1.729V0h-2.981V10.8h-1.945V20.9h-1.9v3.566S131,29.121,130.77,37.761v4.1H128.2v2.75l3.625,4.754V60.357H119.135L116.046,55.6h-.972V51.654h-.641v3.964h-.972l-3.033,4.843H90.994l-3.033-4.843h-.972V51.654h-.652v3.957h-.972l-3.1,4.747H69.649V49.348l3.614-4.754v-2.75H70.689v-4.1c-.212-8.6-8.979-13.294-8.979-13.294V20.894H59.825V10.8H57.88V0H54.9V10.857H53.17v9.978H51.121v3.517C43.562,27.7,42.269,37.47,42.269,37.47V42H39.661V44.05L43.334,48.8V60.465H30.551v-.816l-3.726-4.1v-3.89H25.92v3.89l-3.51,4.206H10.145L0,72.235v82.287H201.489V72.235Z" fill="#222629"/>
        </g>
      </g>
    </g>
  </g>
</svg>
