<svg id="Component_90_1" data-name="Component 90 – 1" xmlns="http://www.w3.org/2000/svg" width="630.707" height="196.22" viewBox="0 0 630.707 196.22">
  <path id="Path_2820" data-name="Path 2820" d="M123.171,167.8c0-52.33,39.549-90.5,92.851-90.5,27.021,0,50.542,9.353,66.564,27.555l-16.271,15.928C252.8,106.374,236.289,99.8,217.018,99.8c-39.537,0-68.819,28.821-68.819,68s29.281,68,68.819,68c19.271,0,35.787-6.823,49.3-21.231L282.586,230.5c-16.022,18.2-39.544,27.8-66.821,27.8-53.045,0-92.594-38.17-92.594-90.495" transform="translate(-123.171 -68.703)" fill="#222629"/>
  <path id="Path_2821" data-name="Path 2821" d="M379.055,165.852v80.893H356.279V229.057c-8,12.127-22.768,19.211-43.545,19.211-30.022,0-49.049-16.188-49.049-39.443,0-21.485,13.766-39.182,53.307-39.182h38.041v-4.8c0-20.485-11.769-32.354-35.538-32.354-15.765,0-31.779,5.552-42.044,14.4l-10.013-18.2c13.767-11.119,33.54-17.187,54.808-17.187,36.292,0,56.807,17.7,56.807,54.353m-24.021,39.935v-18.7h-37.04c-23.777,0-30.532,9.349-30.532,20.728,0,13.4,11.013,21.737,29.282,21.737,18.018,0,32.282-8.34,38.291-23.769" transform="translate(-84 -59.172)" fill="#222629"/>
  <path id="Path_2822" data-name="Path 2822" d="M460.071,111.5v23.51a43.183,43.183,0,0,0-5.516-.247c-25.771,0-41.785,15.914-41.785,45.245v66.737H388.744V112.764h23.024v22.495c8.507-15.673,25.022-23.76,48.3-23.76" transform="translate(-49.137 -59.172)" fill="#222629"/>
  <rect id="Rectangle_1387" data-name="Rectangle 1387" width="24.026" height="187.575" transform="translate(440.461)" fill="#222629"/>
  <g id="Group_2595" data-name="Group 2595" transform="translate(494.772 52.097)">
    <path id="Path_2823" data-name="Path 2823" d="M557.972,206.321a21.142,21.142,0,0,0-4.409,12.945c0,.217,0,.463.018.667-1-.278-2-.636-2.981-.995a68.329,68.329,0,0,1-24.687-15.953,7.151,7.151,0,1,1,10.16-10.065,54.036,54.036,0,0,0,19.519,12.594c.777.284,1.578.569,2.38.807" transform="translate(-506.248 -89.158)" fill="#3f9ce9"/>
    <path id="Path_2824" data-name="Path 2824" d="M606.369,204.123a67.618,67.618,0,0,1-22.658,14.3c-.79.316-1.567.6-2.379.861v-.292a21.092,21.092,0,0,0-4.659-13.231c.648-.219,1.3-.45,1.931-.693a53.9,53.9,0,0,0,17.892-11.3,7.154,7.154,0,1,1,9.873,10.357" transform="translate(-491.519 -88.887)" fill="#3f9ce9"/>
    <path id="Path_2825" data-name="Path 2825" d="M605.621,125.675q1.145.965,2.221,2.005a21.38,21.38,0,0,0-10.925,9.416,5.212,5.212,0,0,0-.607-.547,53.807,53.807,0,0,0-21.334-11.165,7.143,7.143,0,1,1,3.594-13.826,67.786,67.786,0,0,1,27.051,14.118" transform="translate(-493.487 -111.319)" fill="#3f9ce9"/>
    <path id="Path_2826" data-name="Path 2826" d="M620.057,165.733a67.68,67.68,0,0,1-2.839,19.491,7.154,7.154,0,1,1-13.714-4.084,53.933,53.933,0,0,0,2.24-15.407,50.762,50.762,0,0,0-.387-6.462l-.421-2.146c.359.024.739.024,1.095.024a21.2,21.2,0,0,0,12.636-4.172l.863,4.271a67.651,67.651,0,0,1,.525,8.484" transform="translate(-484.123 -99.705)" fill="#3f9ce9"/>
    <path id="Path_2827" data-name="Path 2827" d="M522.023,190.538a7.332,7.332,0,0,1-2.124.33,7.142,7.142,0,0,1-6.822-5.052,68.256,68.256,0,0,1-1.729-33.08,21.05,21.05,0,0,0,13.043,4.482,6.644,6.644,0,0,0,.689-.024,54.055,54.055,0,0,0,1.67,24.4,7.142,7.142,0,0,1-4.728,8.947" transform="translate(-510.083 -99.773)" fill="#3f9ce9"/>
    <path id="Path_2828" data-name="Path 2828" d="M559.589,125.442a53.811,53.811,0,0,0-21.059,11.042c-.158.141-.33.288-.47.434a21.21,21.21,0,0,0-11.049-9.327c.717-.691,1.463-1.359,2.227-2a67.9,67.9,0,0,1,26.706-13.971,7.149,7.149,0,1,1,3.646,13.826" transform="translate(-505.364 -111.305)" fill="#3f9ce9"/>
    <path id="Path_2829" data-name="Path 2829" d="M538.34,142.692a14.014,14.014,0,1,1-14.012-14.009,14.019,14.019,0,0,1,14.012,14.009" transform="translate(-510.019 -106.478)" fill="#3f9ce9"/>
    <path id="Path_2830" data-name="Path 2830" d="M622.492,142.692a14.011,14.011,0,1,1-14.008-14.009,14.009,14.009,0,0,1,14.008,14.009" transform="translate(-486.558 -106.478)" fill="#3f9ce9"/>
    <path id="Path_2831" data-name="Path 2831" d="M580.766,216.117a14.01,14.01,0,1,1-14.018-14.009,14.017,14.017,0,0,1,14.018,14.009" transform="translate(-498.19 -86.009)" fill="#3f9ce9"/>
  </g>
</svg>
