<?xml version="1.0" encoding="utf-8"?>
<!-- Generator: Adobe Illustrator 23.0.5, SVG Export Plug-In . SVG Version: 6.00 Build 0)  -->
<svg version="1.1" id="Layer_1" xmlns="http://www.w3.org/2000/svg" xmlns:xlink="http://www.w3.org/1999/xlink" x="0px" y="0px"
	 viewBox="0 0 160 80" style="enable-background:new 0 0 160 80;" xml:space="preserve">
<style type="text/css">
	.st0{fill:#FFFFFF;fill-opacity:0.65;}
	.st1{fill-rule:evenodd;clip-rule:evenodd;fill:#FFFFFF;fill-opacity:0.45;}
	.st2{fill:#FFFFFF;fill-opacity:0.45;}
</style>
<path class="st0" d="M58.7,28.8c2.5,0,4.9,1,6.7,2.8c1.8,1.8,2.8,4.2,2.8,6.7v28.2c0,2.5-1,4.9-2.8,6.7c-1.8,1.8-4.2,2.8-6.7,2.8
	c-2.5,0-5-1-6.7-2.8c-1.8-1.8-2.8-4.2-2.8-6.7V38.3c0-2.5,1-4.9,2.8-6.7C53.8,29.8,56.2,28.8,58.7,28.8z"/>
<path class="st1" d="M100.7,6c5.4,0,9.8,4.4,9.8,9.8v50.4c0,5.4-4.4,9.8-9.8,9.8c-5.4,0-9.8-4.4-9.8-9.8V50.7h-7
	c-8.5,0-15.4,6.9-15.4,15.4v0.5c-0.1,1.3-0.4,2.5-0.9,3.7c-0.5,1.2-1.3,2.2-2.3,3.1c-0.9,0.9-2.1,1.5-3.3,2
	c-1.2,0.4-2.5,0.6-3.8,0.6c-5.2-0.2-9.3-4.8-9.3-10v-2.3c0-17.9,14.4-32.4,32.2-32.4h9.6V15.8C90.9,10.4,95.2,6,100.7,6z"/>
<path class="st2" d="M68.4,16.3c-0.3,5.3-4.1,9.5-9.8,9.2c-4.6-0.2-8.6-3.5-9.4-7.9c-0.3-1.3-0.3-2.6,0-3.8c0.3-1.3,0.8-2.5,1.5-3.5
	C56.1,2.1,69,6.6,68.4,16.3z"/>
</svg>
