<?xml version="1.0" encoding="utf-8"?>
<!-- Generator: Adobe Illustrator 23.0.5, SVG Export Plug-In . SVG Version: 6.00 Build 0)  -->
<svg version="1.1" id="Layer_1" xmlns="http://www.w3.org/2000/svg" xmlns:xlink="http://www.w3.org/1999/xlink" x="0px" y="0px"
	 viewBox="0 0 160 80.5" style="enable-background:new 0 0 160 80.5;" xml:space="preserve">
<style type="text/css">
	.st0{fill-rule:evenodd;clip-rule:evenodd;fill:#F79563;}
	.st1{fill-rule:evenodd;clip-rule:evenodd;fill:#FFFFFF;fill-opacity:0.76;}
	.st2{fill:#FFFFFF;fill-opacity:0.45;}
	.st3{fill-rule:evenodd;clip-rule:evenodd;fill:#FFFFFF;fill-opacity:0.45;}
	.st4{fill:#FFFFFF;fill-opacity:0.76;}
</style>
<path class="st0" d="M69.8,9.3C69.8,9.2,69.8,9.2,69.8,9.3C69.8,9.2,69.8,9.2,69.8,9.3z"/>
<path class="st0" d="M69.9,8.9C69.9,8.9,69.9,8.8,69.9,8.9C69.9,8.8,69.9,8.9,69.9,8.9z"/>
<path class="st1" d="M68.9,12.1c0-1.4,0.2-2.7,0.7-4c-4.8-1.3-6.7,5.5-4.8,9.8c2.8,6.5,10.5,9.2,16.6,9.4c-2.9-1.2-5.5-3-7.8-5.2
	C70.7,19.2,69.1,15.7,68.9,12.1z"/>
<path class="st0" d="M70,8.6C70,8.5,70,8.5,70,8.6C70,8.5,70,8.5,70,8.6z"/>
<path class="st2" d="M77.9,5.1L77.7,5l-0.1-0.1l-0.1-0.1l-0.1-0.1l-0.1-0.1l-0.1-0.1l-0.1-0.1l-0.1,0L77,4.5h-0.1l-0.2-0.1h0
	l-0.2-0.1h-0.1l-0.1,0h-0.1l-0.1,0h-0.1H76h-0.1h-0.1h0h-0.2h0h-0.1h-0.5h-0.2h0l-0.3,0h-0.1l-0.2,0.1c-0.1,0-0.2,0.1-0.2,0.1h-0.1
	l-0.2,0.1h0c-0.1,0-0.2,0.1-0.2,0.1h-0.1L73,4.8l-0.1,0l-0.2,0.1l0,0l-0.2,0.2l-0.1,0l-0.2,0.2L72,5.6l0,0.1l-0.2,0.2v0l-0.2,0.2
	l0,0.1l-0.2,0.2l0,0.1l-0.2,0.2l0,0.1C71.1,6.8,71,6.9,71,7l0,0.1l-0.2,0.3l-0.1,0.3c0,0,0,0.1,0,0.1l-0.1,0.3v0l-0.1,0.3
	c0,0,0,0,0,0.1c0,0,0,0.1-0.1,0.1c0,0,0,0.1-0.1,0.2c0,0,0,0,0,0.1c0,0.1-0.1,0.2-0.1,0.3c0,0,0,0,0,0.1C70,9.1,70,9.2,70,9.3
	c0,0,0,0.1,0,0.1c0,0.1-0.1,0.2-0.1,0.3c0,0.1-0.1,0.2-0.1,0.3v0.1l-0.1,0.3c0,0,0,0,0,0l0,0.3c0,0,0,0,0,0.1c0,0.1,0,0.2,0,0.3
	c0,0,0,0,0,0.1c0,0,0,0.2,0,0.3v0c0,0.1,0,0.2,0,0.3v0c0,0.1,0,0.2,0,0.3c0,0.2,0,0.5,0,0.7c0,0.2,0.1,0.5,0.1,0.7
	c0,0.2,0.1,0.5,0.1,0.7c0,0.1,0,0.2,0.1,0.3c0.1,0.4,0.2,0.9,0.4,1.3c0.1,0.2,0.2,0.4,0.2,0.6c0.1,0.2,0.2,0.4,0.3,0.6
	c0.2,0.4,0.4,0.8,0.6,1.2c0.1,0.2,0.2,0.4,0.4,0.6c0.2,0.3,0.4,0.6,0.6,0.8c0.1,0.2,0.3,0.4,0.4,0.6c0.9,1.2,2,2.2,3.1,3.2
	c0.2,0.1,0.4,0.3,0.6,0.4l0.6,0.4c0.2,0.1,0.4,0.3,0.6,0.4c1.7,1.1,3.5,2.1,5.4,2.8C84.1,19.4,82.5,9.2,77.9,5.1z"/>
<path class="st2" d="M72.2,5.2l0.2-0.2L72.2,5.2z"/>
<path class="st2" d="M72,5.5l0.2-0.2L72,5.5z"/>
<path class="st2" d="M72.4,5l0.2-0.2L72.4,5z"/>
<path class="st2" d="M71.5,6l0.2-0.2L71.5,6z"/>
<path class="st2" d="M73.2,4.5c0.1,0,0.1-0.1,0.2-0.1C73.4,4.4,73.3,4.4,73.2,4.5z"/>
<path class="st2" d="M72.7,4.8l0.2-0.1L72.7,4.8z"/>
<path class="st2" d="M73.5,4.3l0.2-0.1L73.5,4.3z"/>
<path class="st2" d="M73,4.6l0.2-0.1L73,4.6z"/>
<path class="st2" d="M70.2,8.1l0.1-0.3L70.2,8.1z"/>
<path class="st2" d="M70.3,7.8l0.1-0.3L70.3,7.8z"/>
<path class="st2" d="M70.5,7.5l0.1-0.3L70.5,7.5z"/>
<path class="st2" d="M71.3,6.2L71.5,6L71.3,6.2z"/>
<path class="st2" d="M73.8,4.2c0.1,0,0.2-0.1,0.2-0.1C74,4.1,73.9,4.2,73.8,4.2z"/>
<path class="st2" d="M70.2,8.2c0,0,0,0.1-0.1,0.1C70.1,8.3,70.2,8.2,70.2,8.2z"/>
<path class="st2" d="M70.7,7.2l0.2-0.3L70.7,7.2z"/>
<path class="st2" d="M71.1,6.5l0.2-0.2L71.1,6.5z"/>
<path class="st2" d="M70.9,6.8c0.1-0.1,0.1-0.2,0.2-0.3C71,6.7,70.9,6.8,70.9,6.8z"/>
<path class="st2" d="M71.7,5.7l0.2-0.2L71.7,5.7z"/>
<path class="st2" d="M77.1,4.5L77.1,4.5L77.1,4.5z"/>
<path class="st2" d="M77.6,4.9L77.6,4.9L77.6,4.9z"/>
<path class="st2" d="M77.3,4.6L77.3,4.6L77.3,4.6z"/>
<path class="st2" d="M77.5,4.8L77.5,4.8L77.5,4.8z"/>
<path class="st2" d="M74.1,4.1L74.3,4L74.1,4.1z"/>
<path class="st2" d="M74.4,4l0.3,0L74.4,4z"/>
<path class="st2" d="M69.8,9.2c0-0.1,0.1-0.2,0.1-0.3C69.9,9,69.9,9.1,69.8,9.2z"/>
<path class="st2" d="M70.1,8.3c0,0.1,0,0.1-0.1,0.2C70.1,8.4,70.1,8.4,70.1,8.3z"/>
<path class="st2" d="M69.9,8.8C70,8.7,70,8.6,70,8.6C70,8.6,70,8.7,69.9,8.8z"/>
<path class="st2" d="M69.4,11.8c0,0.1,0,0.2,0,0.3c0,0.2,0,0.5,0,0.7c0-0.2,0-0.5,0-0.7C69.4,12,69.4,11.9,69.4,11.8z"/>
<path class="st2" d="M69.5,10.3l0.1-0.3L69.5,10.3z"/>
<path class="st2" d="M72.6,20.3c-0.1-0.2-0.3-0.4-0.4-0.6C72.3,19.9,72.5,20.1,72.6,20.3z"/>
<path class="st2" d="M69.4,11.7c0-0.1,0-0.2,0-0.3C69.4,11.5,69.4,11.6,69.4,11.7z"/>
<path class="st2" d="M69.5,13.5c0-0.2-0.1-0.5-0.1-0.7C69.5,13.1,69.5,13.3,69.5,13.5z"/>
<path class="st2" d="M69.4,11.4c0-0.1,0-0.2,0-0.3C69.4,11.2,69.4,11.3,69.4,11.4z"/>
<path class="st2" d="M69.7,14.2c-0.1-0.2-0.1-0.5-0.1-0.7C69.6,13.8,69.6,14,69.7,14.2z"/>
<path class="st2" d="M70.1,15.9c-0.2-0.4-0.3-0.9-0.4-1.3C69.8,15,70,15.4,70.1,15.9z"/>
<path class="st2" d="M71.6,18.9c-0.1-0.2-0.2-0.4-0.4-0.6C71.4,18.5,71.5,18.7,71.6,18.9z"/>
<path class="st2" d="M69.6,9.9c0-0.1,0-0.2,0.1-0.3C69.7,9.7,69.7,9.8,69.6,9.9z"/>
<path class="st2" d="M70.6,17.1c-0.1-0.2-0.2-0.4-0.3-0.6C70.5,16.7,70.5,16.9,70.6,17.1z"/>
<path class="st2" d="M76.3,23.9c-0.2-0.1-0.4-0.3-0.6-0.4C75.9,23.6,76.1,23.7,76.3,23.9z"/>
<path class="st2" d="M77.4,24.7c-0.2-0.1-0.4-0.3-0.6-0.4C77,24.4,77.2,24.5,77.4,24.7z"/>
<path class="st2" d="M69.7,9.6c0-0.1,0.1-0.2,0.1-0.3C69.8,9.4,69.7,9.5,69.7,9.6z"/>
<path class="st2" d="M69.5,11c0-0.1,0-0.2,0-0.3C69.5,10.8,69.5,10.9,69.5,11z"/>
<path class="st2" d="M69.5,10.6l0-0.3L69.5,10.6z"/>
<path class="st3" d="M101.2,30.7c-1-2-2.3-3.8-3.9-5.3c0,0,0,0.1,0,0.1c-1.4,1.6-5.5-0.3-8.1,0.5c0-0.2-0.1-0.5-0.1-0.7
	c-1.8,2.5-1.7,7,0.4,11.2c2.7,5.3,11.3,6.2,12.6,5.3C103.5,40.9,103.9,36,101.2,30.7z M100.4,33.2c-0.6,0.4-2.3,0.3-2.9-0.7
	c-0.6-1-0.2-2.9,0.5-3.3c0.6-0.4,1.7,0.1,2.3,1S101,32.8,100.4,33.2z"/>
<path class="st3" d="M89.3,16.1c-5-0.5-5.1,5.3-2.2,5.8c1.6,0.3,2.8-1,4.6-1.2c2.7-0.2,5,1.6,6.9,1.5c5.4-0.4,4.6-9.8-2-7.6
	c6.7-3.4,8.6,8,1.8,8.3c-2.1,0.1-4.1-1.5-6-1.5c-1.3,0-2,0.6-3.7,1c0.3,1,0.8,1.8,0.6,3.1c1.7-0.6,5.1-0.4,7.5,0.2
	c-1.4-1.3-4.7-1.4-6.9-0.9c1.7-1.4,6.4-1.1,7.5,0.8c-1.3,1.6-5.6-0.5-8.2,0.3c-0.1-1.3-0.6-2-0.6-3.4c-6.1,1-4.7-8.6,0.2-7
	c0.1-5,10.1-4.3,6.9,1.3C98.3,12.3,89.3,11,89.3,16.1z"/>
<path class="st3" d="M80.7,46.8c-3.7-4.5-5.6-10.3-5.4-16.1c0-0.6,0.1-1.2,0.1-1.8c-0.6,0.1-1.3,0.1-2,0.2c-1.2,0.2-2.4,0.5-3.6,1
	v0.4c-0.2,6.3,1.6,12.4,5,17.7c0.6-0.1,1.2-0.1,1.8-0.2C78,47.7,79.3,47.4,80.7,46.8z"/>
<path class="st0" d="M65,32.8c-2.7,2.2-4.2,5.2-3.7,8.1c0.6,3.4,3.6,5.8,7.7,6.9C66.5,43.1,65.2,38,65,32.8z"/>
<path class="st1" d="M65,32.8c-2.7,2.2-4.2,5.2-3.7,8.1c0.6,3.4,3.6,5.8,7.7,6.9C66.5,43.1,65.2,38,65,32.8z"/>
<path class="st3" d="M60.1,40.6l-9.4,3.9l10-1.5c-0.2-0.3-0.4-0.7-0.5-1.1C60.1,41.5,60.1,41,60.1,40.6z"/>
<path class="st1" d="M88.1,40.3C86,37.7,84.9,34.4,85,31c-1.5-0.9-3.1-1.6-4.8-1.9c-0.1,0.6-0.1,1.1-0.1,1.7
	c-0.2,5,1.6,9.8,4.8,13.5C86.2,43.3,87.3,41.9,88.1,40.3z"/>
<path class="st1" d="M89.8,13.4c0.1-0.1,0.3-0.2,0.4-0.3c0-1,0.1-1.9,0.3-2.9c1.7-1.4,2-4.9,0.6-4.9c-1.4,0-1.2,2.7-1.1,4.2
	C90.1,10.8,90,12.1,89.8,13.4z"/>
<path class="st1" d="M95.9,13.6c0.5-0.6,1.1-1.2,1.7-1.6c1.3-0.9,4.4-1.4,3.2-2.9c-1.2-1.5-2.7,1.3-3.6,2.4
	c-0.6,0.7-1.1,1.3-1.5,1.9C95.8,13.5,95.9,13.5,95.9,13.6z"/>
<path class="st4" d="M24.4,59.2c0.9,0,1.8,0.1,2.6,0.3c0.7,0.2,1.3,0.5,1.8,0.9c0.5,0.4,0.8,0.8,1,1.4c0.2,0.6,0.3,1.2,0.3,1.8
	c0,0.4-0.1,0.8-0.2,1.2c-0.1,0.4-0.3,0.7-0.6,1c-0.3,0.3-0.6,0.6-1,0.9c-0.4,0.3-0.9,0.5-1.4,0.6c1,0.1,2,0.6,2.7,1.3
	c0.3,0.3,0.6,0.7,0.7,1.2c0.2,0.4,0.2,0.9,0.2,1.3c0,0.7-0.1,1.3-0.4,1.9c-0.3,0.6-0.6,1.1-1.1,1.5c-0.5,0.4-1.2,0.8-1.8,1
	c-0.8,0.2-1.6,0.4-2.5,0.3h-5.9V59.2H24.4z M21.3,61v5.7h2.9c0.6,0,1.1-0.1,1.7-0.2c0.4-0.1,0.8-0.3,1.2-0.6
	c0.3-0.2,0.5-0.5,0.7-0.9c0.1-0.4,0.2-0.8,0.2-1.2c0-0.4,0-0.8-0.2-1.2c-0.2-0.4-0.4-0.7-0.7-1c-0.8-0.5-1.8-0.8-2.7-0.7H21.3z
	 M24.9,74c0.6,0,1.1-0.1,1.7-0.2c0.4-0.1,0.8-0.3,1.1-0.6c0.3-0.3,0.5-0.6,0.7-1c0.1-0.4,0.2-0.8,0.2-1.2c0-0.4-0.1-0.8-0.2-1.1
	s-0.4-0.7-0.7-0.9c-0.8-0.6-1.8-0.8-2.7-0.7h-3.6V74H24.9z"/>
<path class="st4" d="M44.2,74v1.8H34V59.2h10.1v1.8h-7.9v5.5h6.4v1.8h-6.4V74L44.2,74z"/>
<path class="st4" d="M57.4,74v1.8H47.3V59.2h10.1v1.8h-7.9v5.5h6.4v1.8h-6.4V74L57.4,74z"/>
<path class="st4" d="M75.3,67.6c0,1.2-0.2,2.3-0.6,3.4c-0.3,1-0.9,1.9-1.6,2.6c-0.7,0.7-1.5,1.3-2.5,1.7c-2,0.8-4.3,0.8-6.3,0
	c-0.9-0.4-1.8-0.9-2.5-1.7c-0.7-0.8-1.2-1.7-1.6-2.6c-0.7-2.2-0.7-4.6,0-6.9c0.3-1,0.9-1.9,1.6-2.6c0.7-0.7,1.5-1.3,2.5-1.7
	c1-0.4,2.1-0.6,3.1-0.6c1.1,0,2.2,0.2,3.2,0.6c0.9,0.4,1.8,0.9,2.5,1.7c0.7,0.8,1.2,1.7,1.6,2.6C75.1,65.3,75.3,66.5,75.3,67.6z
	 M74.1,67.6c0-1-0.1-2.1-0.5-3.1c-0.3-0.9-0.7-1.6-1.3-2.3c-0.6-0.6-1.3-1.1-2.1-1.5c-1.7-0.7-3.6-0.7-5.3,0
	c-0.8,0.3-1.5,0.8-2.1,1.5c-0.6,0.7-1.1,1.5-1.3,2.3c-0.6,2-0.6,4.1,0,6.1c0.3,0.9,0.7,1.6,1.3,2.3c0.6,0.6,1.3,1.1,2.1,1.4
	c1.7,0.7,3.6,0.7,5.3,0c0.8-0.3,1.5-0.8,2.1-1.4c0.6-0.7,1.1-1.5,1.3-2.3C73.9,69.7,74.1,68.7,74.1,67.6z"/>
<path class="st4" d="M90.3,75.8h-1c-0.1,0-0.2,0-0.3-0.1c-0.1-0.1-0.2-0.1-0.2-0.2l-5.2-6.6c-0.1-0.1-0.1-0.2-0.2-0.2
	c-0.1-0.1-0.1-0.1-0.2-0.1c-0.1,0-0.2-0.1-0.3-0.1c-0.1,0-0.3,0-0.4,0h-2.1v7.4H79V59.5h4.1c1.9,0,3.3,0.4,4.2,1.1
	c0.5,0.4,0.8,0.9,1.1,1.4c0.2,0.6,0.3,1.2,0.3,1.8c0,0.6-0.1,1.2-0.3,1.7c-0.2,0.5-0.5,1-0.9,1.4c-0.4,0.4-0.9,0.7-1.5,1
	c-0.6,0.3-1.3,0.4-1.9,0.5c0.2,0.1,0.4,0.3,0.5,0.5L90.3,75.8z M83,67.5c0.7,0,1.3-0.1,1.9-0.3c0.5-0.2,1-0.4,1.4-0.7
	c0.4-0.3,0.7-0.7,0.9-1.2c0.2-0.5,0.3-1,0.3-1.5c0-0.5,0-1-0.2-1.4c-0.2-0.5-0.5-0.8-0.9-1.2c-1-0.6-2.2-0.9-3.3-0.8h-3v7.2H83z"/>
<path class="st4" d="M106.7,67.6c0,1.2-0.2,2.3-0.6,3.4c-0.3,1-0.9,1.8-1.6,2.6c-0.7,0.7-1.5,1.3-2.5,1.6c-1,0.4-2.1,0.6-3.2,0.6H93
	V59.5h5.9c1.1,0,2.1,0.2,3.2,0.6c0.9,0.4,1.8,0.9,2.5,1.6c0.7,0.7,1.2,1.6,1.6,2.6C106.5,65.3,106.7,66.5,106.7,67.6z M105.5,67.6
	c0-1-0.1-2.1-0.5-3.1c-0.3-0.8-0.7-1.6-1.3-2.3c-0.6-0.6-1.3-1.1-2.1-1.4c-0.9-0.3-1.8-0.5-2.7-0.5h-4.8v14.5h4.8
	c0.9,0,1.8-0.2,2.7-0.5c0.8-0.3,1.5-0.8,2.1-1.4c0.6-0.7,1.1-1.4,1.3-2.3C105.3,69.7,105.5,68.7,105.5,67.6z"/>
<path class="st4" d="M120.2,74.9v1h-9.8V59.5h9.7v1h-8.6v6.6h7.1v1h-7.1v6.8L120.2,74.9z"/>
<path class="st4" d="M135,75.8h-1c-0.1,0-0.2,0-0.3-0.1c-0.1-0.1-0.2-0.1-0.2-0.2l-5.2-6.6c-0.1-0.1-0.1-0.2-0.2-0.2
	c-0.1-0.1-0.1-0.1-0.2-0.1c-0.1,0-0.2-0.1-0.3-0.1c-0.1,0-0.3,0-0.4,0H125v7.4h-1.2V59.5h4.2c1.9,0,3.3,0.4,4.2,1.1
	c0.5,0.4,0.8,0.9,1.1,1.4c0.2,0.6,0.3,1.2,0.3,1.8c0,0.6-0.1,1.2-0.3,1.7c-0.2,0.5-0.5,1-0.9,1.4c-0.4,0.4-0.9,0.7-1.5,1
	c-0.6,0.3-1.3,0.4-1.9,0.5c0.2,0.1,0.4,0.3,0.5,0.5L135,75.8z M127.8,67.5c0.7,0,1.3-0.1,1.9-0.3c0.5-0.2,1-0.4,1.4-0.7
	c0.4-0.3,0.7-0.7,0.9-1.2c0.2-0.5,0.3-1,0.3-1.5c0-0.5,0-1-0.2-1.4c-0.2-0.5-0.5-0.8-0.9-1.2c-1-0.6-2.2-0.9-3.3-0.8h-3v7.2H127.8z"
	/>
</svg>
