<svg width="214" height="60" viewBox="0 0 214 60" fill="none" xmlns="http://www.w3.org/2000/svg">
<path d="M191.922 36.9559L185.912 27.1842V43.1828C185.912 46.0841 183.937 48.0636 181.501 48.0636C179.066 48.0636 177.089 46.1196 177.089 43.731C177.089 43.2488 177.172 42.7869 177.32 42.3524L177.384 42.1809L177.443 42.0286L184.244 24.4666L181.497 20L170.937 37.1762H170.941C169.713 39.0705 169 41.318 169 43.731C169 50.5081 174.597 56 181.501 56C188.403 56 194 50.5081 194 43.731C194 41.2266 193.233 38.8989 191.922 36.9559Z" fill="white" fill-opacity="0.76"/>
<path d="M155.078 23.042L161.086 32.8158V16.7695C161.086 13.8916 163.062 11.9384 165.501 11.9384C167.935 11.9384 169.912 13.8784 169.912 16.269C169.912 16.7492 169.827 17.2172 169.68 17.6516H169.682L169.617 17.8161L169.556 17.9734L162.756 35.5313L165.502 40L176.064 22.8278H176.062C177.286 20.9295 178 18.68 178 16.269C178 9.49497 172.401 4 165.501 4C158.596 4 153 9.49497 153 16.269C153 18.7713 153.766 21.1011 155.078 23.042Z" fill="white" fill-opacity="0.76"/>
<path d="M102 39.2392V35.3955C100.877 35.096 100.092 35 99.6307 35C94.8962 35 92.0255 36.9808 92.0255 42.106V42.1958H92V49.8362C92 50.096 92.001 50.3214 92.0092 50.5156V55H96.9571V46.0321V42.6018V41.9714H96.9663C97.0235 39.88 98.3378 38.8739 99.9534 38.8739C100.892 38.8739 102 39.2392 102 39.2392Z" fill="white" fill-opacity="0.45"/>
<path d="M61.4976 55H53V28H61.5315C66.7789 28 69.2553 31.442 69.2553 34.7164C69.2553 37.0552 68.1182 39.2264 65.924 40.3327V40.3741C68.89 41.0736 71 43.6908 71 46.8907C71 50.7394 68.2372 55 61.4976 55ZM60.3143 32.1778H57.9138V39.2264H60.8418C62.5927 39.2264 64.3374 37.792 64.3374 35.6612C64.3374 33.6142 63.0371 32.1778 60.3143 32.1778ZM61.2493 43.3659H57.9138V50.8253H61.045C64.3374 50.8253 65.9661 49.3454 65.9661 46.8907C65.9661 44.8002 64.2563 43.3659 61.2493 43.3659Z" fill="white" fill-opacity="0.45"/>
<path d="M49 54.9772C48.6561 54.9938 48.3036 55 47.95 55C43.0004 55 40 53.0308 40 47.945V28H45.1558V48.0808H45.1644C45.2338 50.3174 46.8915 51.2274 48.9615 51.2274L49 51.2233V54.9772Z" fill="white" fill-opacity="0.45"/>
<path d="M155.632 50.5337V43.0501H155.604V42.9611C155.604 37.9407 152.681 36 147.864 36L147.477 36.0082H146.136V36.0399C145.011 36.0767 143.924 36.1861 142.893 36.364V40.1002C144.053 39.8701 145.22 39.7444 146.371 39.7444V39.7403H147.296C149.113 39.8609 150.517 40.7791 150.577 42.8323H150.586V43.4489L147.152 43.5736C142.171 43.7342 139 45.8742 139 49.8456C139 53.6145 141.802 56 145.383 56C147.976 56 149.745 55.0276 151.022 53.8967L151.846 55.5951H156C155.715 54.7076 155.632 53.2883 155.632 50.5337ZM150.586 50.9601C149.923 51.5194 148.818 52.1524 147.11 52.1524C145.051 52.1524 143.939 51.0583 143.939 49.4806C143.939 47.864 145.136 46.9724 147.805 46.8916L150.586 46.8119V50.9601Z" fill="white" fill-opacity="0.45"/>
<path d="M117.627 50.5337V43.0501H117.6V42.9611C117.6 37.9407 114.679 36 109.861 36L109.476 36.0082H108.131V36.0399C107.008 36.0767 105.922 36.1861 104.891 36.364V40.1002C106.051 39.8701 107.218 39.7444 108.369 39.7444V39.7403H109.295C111.109 39.8609 112.514 40.7791 112.574 42.8323H112.583V43.4489L109.149 43.5736C104.166 43.7342 101 45.8742 101 49.8456C101 53.6145 103.798 56 107.383 56C109.974 56 111.742 55.0276 113.019 53.8967L113.843 55.5951H118C117.712 54.7076 117.627 53.2883 117.627 50.5337ZM112.583 50.9601C111.919 51.5194 110.817 52.1524 109.106 52.1524C107.048 52.1524 105.937 51.0583 105.937 49.4806C105.937 47.864 107.132 46.9724 109.81 46.8916L112.583 46.8119V50.9601Z" fill="white" fill-opacity="0.45"/>
<path d="M89.631 50.5337V43.0501H89.6051V42.9611C89.6051 37.9407 86.6815 36 81.8653 36L81.4777 36.0082H80.1328V36.0399C79.0114 36.0767 77.9305 36.1861 76.8995 36.364V40.1002C78.0531 39.8701 79.2234 39.7444 80.3729 39.7444V39.7403H81.2968C83.1156 39.8609 84.5197 40.7791 84.5779 42.8323H84.5842V43.4489L81.1492 43.5736C76.172 43.7342 73 45.8742 73 49.8456C73 53.6145 75.8041 56 79.3824 56C81.9765 56 83.7465 55.0276 85.0207 53.8967L85.8448 55.5951H90C89.7142 54.7076 89.631 53.2883 89.631 50.5337ZM84.5842 50.9601C83.9252 51.5194 82.8173 52.1524 81.1118 52.1524C79.0519 52.1524 77.9419 51.0583 77.9419 49.4806C77.9419 47.864 79.1361 46.9724 81.8113 46.8916L84.5842 46.8119V50.9601Z" fill="white" fill-opacity="0.45"/>
<path d="M120 28H124.81V43.2366L132.361 35.1291H138.429L131.275 42.5023L139 55H133.305L127.897 45.9952L124.81 49.1713V55H120V28Z" fill="white" fill-opacity="0.45"/>
<path d="M37.631 50.5337V43.0501H37.604V42.9611C37.604 37.9407 34.68 36 29.8633 36L29.4756 36.0082H28.1337V36.0399C27.01 36.0767 25.9269 36.1861 24.8958 36.364V40.1002C26.0537 39.8701 27.22 39.7444 28.3738 39.7444V39.7403H29.2947C31.1158 39.8609 32.518 40.7791 32.5762 42.8323H32.5835V43.4489L29.1471 43.5736C24.1703 43.7342 21 45.8742 21 49.8456C21 53.6145 23.8013 56 27.3832 56C29.9776 56 31.7447 55.0276 33.0201 53.8967L33.8422 55.5951H38C37.7121 54.7076 37.631 53.2883 37.631 50.5337ZM32.5835 50.9601C31.9234 51.5194 30.8175 52.1524 29.1107 52.1524C27.0506 52.1524 25.9415 51.0583 25.9415 49.4806C25.9415 47.864 27.1368 46.9724 29.8113 46.8916L32.5835 46.8119V50.9601Z" fill="white" fill-opacity="0.45"/>
</svg>
