<svg width="278" height="49" viewBox="0 0 278 49" fill="none" xmlns="http://www.w3.org/2000/svg">
<path d="M36.47 19.1088C34.3865 19.1121 32.3283 19.5625 30.4359 20.4292C29.4603 19.191 28.7981 17.7379 28.505 16.1921C28.423 15.7762 28.3706 15.355 28.3481 14.9318L29.929 16.3241C30.1112 16.5116 30.3303 16.6596 30.5726 16.7591C30.8149 16.8585 31.0752 16.9072 31.3373 16.902C31.5993 16.8969 31.8575 16.8381 32.0957 16.7293C32.3339 16.6205 32.547 16.464 32.7217 16.2696C32.8963 16.0752 33.0288 15.8471 33.1108 15.5995C33.1929 15.3519 33.2227 15.0901 33.1985 14.8305C33.1742 14.571 33.0964 14.3191 32.9699 14.0908C32.8435 13.8625 32.671 13.6625 32.4633 13.5034L25.3431 7.20186L19.4418 14.2836C19.1218 14.6689 18.9688 15.1647 19.0163 15.6622C19.0638 16.1596 19.308 16.6179 19.6952 16.9363C20.031 17.2235 20.4592 17.3811 20.902 17.3804C21.1808 17.3787 21.4558 17.3166 21.708 17.1985C21.9602 17.0803 22.1835 16.9089 22.3623 16.6962L23.7984 14.9798C23.8251 15.6811 23.9058 16.3793 24.0398 17.0683C24.6194 20.0867 26.1544 22.8415 28.4205 24.9303L29.7118 26.1306L31.16 25.2064C32.4672 24.3837 33.949 23.8749 35.4881 23.7202C37.0272 23.5656 38.5814 23.7693 40.0276 24.3153C41.4739 24.8613 42.7725 25.7346 43.8207 26.8661C44.869 27.9975 45.6381 29.3561 46.0672 30.8344C46.4963 32.3126 46.5736 33.8698 46.293 35.3829C46.0124 36.8959 45.3816 38.3233 44.4505 39.5519C43.5194 40.7806 42.3136 41.7769 40.9285 42.462C39.5433 43.147 38.0169 43.502 36.47 43.4989C34.3405 43.5085 32.2654 42.8303 30.5566 41.5664C30.0743 41.3024 29.5123 41.2207 28.9742 41.3365C28.4361 41.4523 27.9583 41.7577 27.6289 42.1965C27.2995 42.6352 27.1408 43.1777 27.1821 43.7237C27.2233 44.2697 27.4617 44.7825 27.8533 45.1674C30.3411 47.0166 33.3642 48.0147 36.47 48.0121C40.322 48.0121 44.0162 46.4901 46.74 43.781C49.4638 41.072 50.994 37.3977 50.994 33.5664C50.994 29.7352 49.4638 26.0609 46.74 23.3519C44.0162 20.6428 40.322 19.1208 36.47 19.1208V19.1088Z" fill="white"/>
<path d="M13.275 21.6655C14.3193 23.4679 15.7439 25.024 17.4506 26.2266C16.8571 27.685 15.922 28.9812 14.7232 30.0076C14.3998 30.2873 14.057 30.544 13.6974 30.7758L14.1318 28.7112C14.2342 28.221 14.1367 27.7104 13.8605 27.2917C13.5844 26.873 13.1524 26.5805 12.6595 26.4787C12.1666 26.3768 11.6532 26.4739 11.2322 26.7485C10.8113 27.0231 10.5173 27.4528 10.4148 27.943L8.44772 37.2094L17.5592 38.7578C17.9091 38.8178 18.269 38.7788 18.5977 38.6452C18.9265 38.5117 19.2109 38.2889 19.4185 38.0023C19.626 37.7158 19.7485 37.377 19.7718 37.0245C19.7952 36.6721 19.7184 36.3202 19.5504 36.0091C19.4084 35.7696 19.2165 35.5631 18.9875 35.4037C18.7585 35.2443 18.4978 35.1355 18.2229 35.0848L16.0145 34.7127C16.6082 34.3513 17.1767 33.9502 17.7161 33.5124C20.0513 31.5023 21.6793 28.8022 22.3623 25.8065L22.7485 24.0061L21.2038 23.2019C19.5982 22.3585 18.2548 21.0949 17.3185 19.5477C16.3822 18.0004 15.8886 16.2282 15.8909 14.4223C15.8932 12.6164 16.3914 10.8454 17.3317 9.30056C18.2721 7.75569 19.6187 6.49561 21.2264 5.65632C22.8341 4.81704 24.6418 4.43043 26.4542 4.53823C28.2667 4.64604 30.0151 5.24416 31.5108 6.26803C33.0065 7.2919 34.1926 8.70264 34.9411 10.3479C35.6896 11.9933 35.972 13.8107 35.7579 15.604C35.7273 16.1817 35.9198 16.7493 36.296 17.1905C36.6722 17.6318 37.2037 17.9134 37.7818 17.9778C38.3599 18.0422 38.9408 17.8845 39.4059 17.5369C39.8709 17.1894 40.1848 16.6783 40.2835 16.1081C40.5254 13.8526 40.2284 11.5721 39.4164 9.45238C38.6045 7.33267 37.3007 5.43364 35.6112 3.90995C33.9217 2.38625 31.8943 1.28097 29.6941 0.6841C27.4938 0.0872309 25.1829 0.0156533 22.9496 0.475196C20.7162 0.934738 18.6236 1.91241 16.842 3.32859C15.0605 4.74477 13.6404 6.55943 12.6975 8.62479C11.7545 10.6901 11.3153 12.9478 11.4157 15.2139C11.516 17.4801 12.1531 19.6906 13.275 21.6655Z" fill="white"/>
<path d="M27.093 40.3661C28.1392 38.5687 28.7776 36.5654 28.9636 34.4967C30.5228 34.2822 32.111 34.4385 33.5977 34.9528C34.0113 35.0928 34.4145 35.2613 34.8046 35.4569L32.8012 36.1171C32.5615 36.193 32.3396 36.3158 32.1484 36.4785C31.9572 36.6411 31.8008 36.8402 31.6883 37.064C31.5758 37.2878 31.5095 37.5317 31.4934 37.7814C31.4773 38.0311 31.5116 38.2814 31.5944 38.5177C31.6735 38.7542 31.7987 38.9729 31.9629 39.1613C32.127 39.3497 32.3269 39.504 32.5511 39.6155C32.7752 39.727 33.0193 39.7934 33.2693 39.811C33.5193 39.8286 33.7703 39.797 34.0081 39.718L43.0712 36.7292L39.8249 28.0991C39.6509 27.6348 39.3001 27.2573 38.8484 27.0484C38.3966 26.8395 37.8804 26.8159 37.4113 26.9828C36.9969 27.1346 36.6503 27.4282 36.4338 27.811C36.2913 28.0517 36.2044 28.3208 36.1794 28.599C36.1543 28.8772 36.1917 29.1574 36.2889 29.4194L37.0734 31.5079C36.4481 31.1791 35.7986 30.8982 35.1304 30.6677C32.2113 29.6577 29.0439 29.603 26.0914 30.5117L24.426 31.0278L24.4984 32.7682C24.5675 34.5698 24.1415 36.356 23.2661 37.9347C22.3906 39.5134 21.099 40.8248 19.5301 41.7278C17.9612 42.6308 16.1744 43.0912 14.3621 43.0595C12.5497 43.0278 10.7803 42.5052 9.2443 41.5479C7.70829 40.5906 6.4638 39.2348 5.64473 37.6265C4.82566 36.0182 4.46302 34.2182 4.59582 32.4202C4.72862 30.6221 5.35184 28.8942 6.39843 27.4222C7.44501 25.9502 8.87534 24.7898 10.5355 24.0661C10.8249 23.9575 11.089 23.7915 11.3118 23.5782C11.5347 23.3649 11.7116 23.1088 11.8318 22.8254C11.952 22.542 12.013 22.2373 12.0111 21.9297C12.0093 21.6221 11.9445 21.3181 11.8208 21.0362C11.6971 20.7543 11.517 20.5003 11.2916 20.2898C11.0661 20.0792 10.8 19.9165 10.5093 19.8114C10.2186 19.7064 9.90953 19.6612 9.60076 19.6787C9.292 19.6961 8.99003 19.7759 8.71322 19.913C5.86537 21.1359 3.49078 23.2409 1.94299 25.9145C0.992099 27.557 0.375785 29.3697 0.129233 31.249C-0.117318 33.1284 0.0107206 35.0376 0.50604 36.8678C1.00136 38.6979 1.85426 40.4131 3.01604 41.9154C4.17782 43.4177 5.62573 44.6777 7.27711 45.6235C8.92848 46.5692 10.751 47.1822 12.6405 47.4274C14.5301 47.6726 16.4497 47.5453 18.2898 47.0527C20.1299 46.56 21.8544 45.7117 23.3648 44.5562C24.8753 43.4007 26.1421 41.9606 27.093 40.3181V40.3661Z" fill="white"/>
<path d="M89.68 9.92006V15.4001H82.24V38.0001H75.4V15.4001H67.96V9.92006H89.68Z" fill="white"/>
<path d="M108.233 38.0001L102.393 27.4001H100.753V38.0001H93.9128V9.92006H105.393C107.606 9.92006 109.486 10.3067 111.033 11.0801C112.606 11.8534 113.779 12.9201 114.553 14.2801C115.326 15.6134 115.713 17.1067 115.713 18.7601C115.713 20.6267 115.179 22.2934 114.113 23.7601C113.073 25.2267 111.526 26.2667 109.473 26.8801L115.953 38.0001H108.233ZM100.753 22.5601H104.993C106.246 22.5601 107.179 22.2534 107.793 21.6401C108.433 21.0267 108.753 20.1601 108.753 19.0401C108.753 17.9734 108.433 17.1334 107.793 16.5201C107.179 15.9067 106.246 15.6001 104.993 15.6001H100.753V22.5601Z" fill="white"/>
<path d="M138.287 33.0401H127.807L126.127 38.0001H118.967L129.127 9.92006H137.047L147.207 38.0001H139.967L138.287 33.0401ZM136.527 27.7601L133.047 17.4801L129.607 27.7601H136.527Z" fill="white"/>
<path d="M161.619 9.92006C164.579 9.92006 167.165 10.5067 169.379 11.6801C171.592 12.8534 173.299 14.5067 174.499 16.6401C175.725 18.7467 176.339 21.1867 176.339 23.9601C176.339 26.7067 175.725 29.1467 174.499 31.2801C173.299 33.4134 171.579 35.0667 169.339 36.2401C167.125 37.4134 164.552 38.0001 161.619 38.0001H151.099V9.92006H161.619ZM161.179 32.0801C163.765 32.0801 165.779 31.3734 167.219 29.9601C168.659 28.5467 169.379 26.5467 169.379 23.9601C169.379 21.3734 168.659 19.3601 167.219 17.9201C165.779 16.4801 163.765 15.7601 161.179 15.7601H157.939V32.0801H161.179Z" fill="white"/>
<path d="M187.801 9.92006V38.0001H180.961V9.92006H187.801Z" fill="white"/>
<path d="M218.678 38.0001H211.838L200.398 20.6801V38.0001H193.558V9.92006H200.398L211.838 27.3201V9.92006H218.678V38.0001Z" fill="white"/>
<path d="M237.716 38.2801C235.076 38.2801 232.65 37.6667 230.436 36.4401C228.25 35.2134 226.503 33.5067 225.196 31.3201C223.916 29.1067 223.276 26.6267 223.276 23.8801C223.276 21.1334 223.916 18.6667 225.196 16.4801C226.503 14.2934 228.25 12.5867 230.436 11.3601C232.65 10.1334 235.076 9.52006 237.716 9.52006C240.356 9.52006 242.77 10.1334 244.956 11.3601C247.17 12.5867 248.903 14.2934 250.156 16.4801C251.436 18.6667 252.076 21.1334 252.076 23.8801C252.076 26.6267 251.436 29.1067 250.156 31.3201C248.876 33.5067 247.143 35.2134 244.956 36.4401C242.77 37.6667 240.356 38.2801 237.716 38.2801ZM237.716 32.0401C239.956 32.0401 241.743 31.2934 243.076 29.8001C244.436 28.3067 245.116 26.3334 245.116 23.8801C245.116 21.4001 244.436 19.4267 243.076 17.9601C241.743 16.4667 239.956 15.7201 237.716 15.7201C235.45 15.7201 233.636 16.4534 232.276 17.9201C230.943 19.3867 230.276 21.3734 230.276 23.8801C230.276 26.3601 230.943 28.3467 232.276 29.8401C233.636 31.3067 235.45 32.0401 237.716 32.0401Z" fill="white"/>
<path d="M266.842 38.2801C264.788 38.2801 262.948 37.9467 261.322 37.2801C259.695 36.6134 258.388 35.6267 257.402 34.3201C256.442 33.0134 255.935 31.4401 255.882 29.6001H263.162C263.268 30.6401 263.628 31.4401 264.242 32.0001C264.855 32.5334 265.655 32.8001 266.642 32.8001C267.655 32.8001 268.455 32.5734 269.042 32.1201C269.628 31.6401 269.922 30.9867 269.922 30.1601C269.922 29.4667 269.682 28.8934 269.202 28.4401C268.748 27.9867 268.175 27.6134 267.482 27.3201C266.815 27.0267 265.855 26.6934 264.602 26.3201C262.788 25.7601 261.308 25.2001 260.162 24.6401C259.015 24.0801 258.028 23.2534 257.202 22.1601C256.375 21.0667 255.962 19.6401 255.962 17.8801C255.962 15.2667 256.908 13.2267 258.802 11.7601C260.695 10.2667 263.162 9.52006 266.202 9.52006C269.295 9.52006 271.788 10.2667 273.682 11.7601C275.575 13.2267 276.588 15.2801 276.722 17.9201H269.322C269.268 17.0134 268.935 16.3067 268.322 15.8001C267.708 15.2667 266.922 15.0001 265.962 15.0001C265.135 15.0001 264.468 15.2267 263.962 15.6801C263.455 16.1067 263.202 16.7334 263.202 17.5601C263.202 18.4667 263.628 19.1734 264.482 19.6801C265.335 20.1867 266.668 20.7334 268.482 21.3201C270.295 21.9334 271.762 22.5201 272.882 23.0801C274.028 23.6401 275.015 24.4534 275.842 25.5201C276.668 26.5867 277.082 27.9601 277.082 29.6401C277.082 31.2401 276.668 32.6934 275.842 34.0001C275.042 35.3067 273.868 36.3467 272.322 37.1201C270.775 37.8934 268.948 38.2801 266.842 38.2801Z" fill="white"/>
</svg>
